<?xml version="1.0" standalone="no"?>
<!DOCTYPE svg PUBLIC "-//W3C//DTD SVG 20010904//EN"
 "http://www.w3.org/TR/2001/REC-SVG-20010904/DTD/svg10.dtd">
<svg version="1.0" xmlns="http://www.w3.org/2000/svg"
 viewBox="0 0 579.000000 431.000000"
 preserveAspectRatio="xMidYMid meet">

<g transform="translate(0.000000,431.000000) scale(0.100000,-0.100000)"
fill="#000000" stroke="none">
<path d="M2680 4026 c-346 -46 -642 -163 -906 -361 -407 -305 -668 -751 -739
-1261 -21 -148 -16 -431 10 -574 137 -759 716 -1356 1469 -1516 165 -35 474
-45 646 -20 398 58 748 229 1034 505 172 167 291 330 391 536 410 843 136
1861 -640 2380 -309 207 -636 311 -1005 320 -97 3 -194 -1 -260 -9z m365 -27
c835 -72 1499 -669 1667 -1499 20 -101 23 -144 23 -345 0 -200 -3 -245 -23
-344 -151 -746 -708 -1310 -1451 -1468 -116 -25 -145 -27 -361 -28 -207 0
-248 3 -350 23 -899 182 -1528 970 -1497 1877 14 399 139 751 377 1065 310
407 793 674 1301 719 136 12 180 12 314 0z"/>
<path d="M2855 3340 c-4 -6 -5 -197 -4 -425 2 -228 0 -417 -2 -420 -3 -3 -9
180 -12 407 -4 226 -9 414 -12 416 -10 10 -194 -31 -242 -54 -85 -41 -176
-137 -223 -236 -45 -94 -57 -149 -90 -413 -19 -157 -23 -173 -50 -210 -88
-117 -234 -345 -268 -417 -61 -129 -141 -331 -148 -374 -5 -36 -2 -45 36 -94
49 -63 121 -140 131 -140 3 0 14 42 23 93 51 282 224 665 347 771 54 46 116
66 203 66 96 0 130 -19 246 -141 88 -92 98 -99 134 -99 35 0 46 8 145 109 121
125 144 136 262 129 103 -5 156 -33 223 -117 76 -94 107 -151 180 -329 64
-156 103 -286 126 -414 7 -38 16 -68 20 -68 10 0 111 113 148 165 25 34 25 39
13 83 -17 66 -74 208 -136 339 -48 101 -152 267 -265 423 -39 54 -40 57 -60
220 -33 265 -47 327 -91 418 -47 98 -140 197 -223 236 -51 25 -231 64 -243 53
-3 -4 -8 -192 -11 -419 -3 -227 -8 -404 -12 -393 -5 11 -5 202 -2 423 4 341 3
405 -9 413 -20 12 -126 11 -134 -1z m-206 -906 c38 -8 83 -26 102 -40 40 -29
38 -30 -31 -2 -42 16 -77 21 -150 22 -92 1 -98 -1 -184 -42 -95 -45 -113 -51
-81 -26 58 45 196 100 258 103 10 1 49 -6 86 -15z m704 1 c61 -16 146 -56 186
-86 34 -27 24 -24 -75 23 -86 41 -93 43 -184 42 -73 0 -107 -5 -149 -22 -30
-12 -56 -20 -58 -18 -9 9 69 47 123 60 77 19 89 19 157 1z"/>
<path d="M2467 2286 c-121 -44 -214 -161 -307 -388 -73 -175 -156 -448 -137
-448 1 0 26 9 56 20 119 46 334 68 359 38 5 -7 20 -45 31 -85 12 -40 26 -75
31 -78 4 -3 20 0 34 6 20 9 29 9 41 -1 8 -7 15 -8 15 -2 0 17 -28 34 -48 28
-16 -5 -24 13 -65 160 -26 92 -46 168 -44 170 2 2 30 -63 62 -144 32 -81 60
-149 62 -152 2 -2 71 63 153 145 115 115 150 156 150 175 0 94 129 94 130 0 1
-18 39 -64 144 -174 78 -82 147 -147 152 -143 6 3 39 78 74 166 35 89 65 160
66 158 2 -2 -20 -85 -49 -185 -45 -158 -54 -181 -70 -176 -19 6 -47 -11 -47
-28 0 -6 7 -5 15 2 12 10 21 10 42 1 14 -7 29 -8 33 -4 4 4 18 40 30 78 13 39
27 76 33 83 24 30 239 8 358 -37 29 -11 55 -19 57 -16 14 14 -86 325 -153 478
-97 221 -200 335 -324 362 l-35 7 36 -41 c19 -22 43 -57 54 -76 24 -45 17 -52
-94 -94 -86 -33 -189 -49 -237 -37 -25 6 -26 9 -20 49 l7 42 -35 -37 c-66 -72
-131 -74 -199 -6 l-40 40 7 -41 c6 -38 5 -41 -20 -47 -68 -17 -301 40 -336 82
-16 19 8 69 60 126 36 41 29 45 -32 24z m110 -302 c19 -4 74 -4 122 -2 85 5
85 5 51 -10 -22 -10 -64 -16 -115 -17 -91 0 -129 16 -174 74 l-26 35 53 -37
c29 -20 69 -39 89 -43z m811 45 c-42 -56 -83 -74 -173 -74 -51 1 -93 6 -115
16 -34 16 -33 16 55 11 105 -5 156 6 211 48 49 37 50 37 22 -1z m-397 -36 c5
-5 -25 -8 -65 -8 -57 0 -70 2 -57 11 32 23 98 21 122 -3z m-28 -35 c15 -11 9
-13 -37 -13 -48 0 -52 1 -33 12 28 16 49 16 70 1z m-374 -78 c66 10 87 10 140
-4 35 -9 65 -16 67 -16 2 0 4 -4 4 -10 0 -5 -27 -23 -60 -40 -69 -35 -102 -83
-131 -188 -22 -79 -29 -88 -22 -30 14 109 67 206 129 236 24 11 30 18 22 24
-18 11 -124 9 -177 -3 -44 -10 -45 -10 -85 32 l-41 43 38 -28 c39 -28 39 -28
116 -16z m785 0 c-40 -40 -41 -41 -85 -31 -49 12 -149 14 -173 5 -12 -5 -6
-13 27 -34 24 -15 53 -43 64 -61 25 -41 53 -132 52 -168 -1 -19 -5 -12 -14 21
-16 60 -49 128 -75 156 -12 12 -43 33 -70 47 -28 14 -50 29 -50 34 0 11 45 26
103 36 21 3 72 1 112 -6 73 -11 74 -11 107 15 48 37 49 32 2 -14z"/>
<path d="M2890 1526 l0 -136 35 0 36 0 -3 133 -3 132 -32 3 -33 3 0 -135z"/>
<path d="M2817 1602 c-25 -26 -27 -34 -27 -120 l0 -92 30 0 30 0 0 120 c0 66
-1 120 -3 120 -2 0 -15 -13 -30 -28z"/>
<path d="M3000 1512 l0 -122 30 0 30 0 0 93 c0 91 -1 94 -30 122 l-30 29 0
-122z"/>
<path d="M2712 1507 c-16 -17 -22 -36 -22 -70 0 -43 2 -47 25 -47 24 0 25 2
25 70 0 39 -1 70 -3 70 -2 0 -13 -10 -25 -23z"/>
<path d="M3100 1460 l0 -70 30 0 c29 0 30 1 30 48 0 38 -5 53 -23 70 -13 12
-26 22 -30 22 -4 0 -7 -31 -7 -70z"/>
<path d="M2616 1345 c5 -13 48 -15 304 -15 256 0 299 2 304 15 5 13 -33 15
-304 15 -271 0 -309 -2 -304 -15z"/>
<path d="M2646 1301 c5 -4 70 -40 144 -78 l135 -71 132 72 c72 39 135 74 139
79 4 4 -120 7 -276 7 -159 0 -280 -4 -274 -9z"/>
</g>
</svg>
